<?xml version="1.0" encoding="utf-8"?>
<!-- Generator: Adobe Illustrator 18.0.0, SVG Export Plug-In . SVG Version: 6.00 Build 0)  -->
<!DOCTYPE svg PUBLIC "-//W3C//DTD SVG 1.1//EN" "http://www.w3.org/Graphics/SVG/1.1/DTD/svg11.dtd">
<svg version="1.1" id="Layer_1" xmlns:sketch="http://www.bohemiancoding.com/sketch/ns"
	 xmlns="http://www.w3.org/2000/svg" xmlns:xlink="http://www.w3.org/1999/xlink" x="0px" y="0px" viewBox="0 0 270 45"
	 enable-background="new 0 0 270 45" xml:space="preserve">
<title>COJORADO 13 + Path 37 + Path 38 + Path 48</title>
<desc>Created with Sketch.</desc>
<g id="Page-1" sketch:type="MSPage">
	<g id="Desktop-HD" transform="translate(-23.000000, -20.000000)" sketch:type="MSArtboardGroup">
		<g id="Group" transform="translate(0.000000, -17.000000)" sketch:type="MSLayerGroup">
			<g id="COJORADO-13-_x2B_-Path-37-_x2B_-Path-38-_x2B_-Path-48" transform="translate(23.000000, 37.000000)">
				<g id="COJORADO-13">
					<g sketch:type="MSShapeGroup">
						
							<linearGradient id="path-3_2_" gradientUnits="userSpaceOnUse" x1="-43.2651" y1="196.2943" x2="-43.2651" y2="195.2943" gradientTransform="matrix(187.3074 0 0 -23.4128 8280.1953 4606.6045)">
							<stop  offset="0" style="stop-color:#656771"/>
							<stop  offset="1" style="stop-color:#565860"/>
						</linearGradient>
						<path id="path-3" fill="url(#path-3_2_)" d="M94.7,34.2c4.9,0,7.8-2.7,9.4-5.6l-4.1-2c-0.9,1.8-3,3.3-5.3,3.3
							c-4.1,0-7.1-3.2-7.1-7.4s3-7.4,7.1-7.4c2.3,0,4.3,1.5,5.3,3.3l4.1-2c-1.6-2.9-4.5-5.5-9.4-5.5c-6.8,0-12.1,4.7-12.1,11.7
							C82.7,29.5,87.9,34.2,94.7,34.2z M117.8,34.2c6.8,0,11.8-4.9,11.8-11.7s-5-11.7-11.8-11.7c-6.8,0-11.8,4.9-11.8,11.7
							S110.9,34.2,117.8,34.2z M117.8,29.9c-4.2,0-6.9-3.2-6.9-7.4c0-4.2,2.7-7.4,6.9-7.4c4.2,0,6.8,3.2,6.8,7.4
							C124.6,26.7,121.9,29.9,117.8,29.9z M136.3,34.2c4.6,0,8-2.5,8-7.8V11.2h-4.8v15.1c0,2.2-1.4,3.6-3.5,3.6
							c-1.6,0-2.7-0.8-3.6-1.6l-2.1,3.7C131.9,33.6,134,34.2,136.3,34.2z M159.5,34.2c6.8,0,11.8-4.9,11.8-11.7s-5-11.7-11.8-11.7
							c-6.8,0-11.8,4.9-11.8,11.7S152.6,34.2,159.5,34.2z M159.5,29.9c-4.2,0-6.9-3.2-6.9-7.4c0-4.2,2.7-7.4,6.9-7.4
							c4.2,0,6.8,3.2,6.8,7.4C166.3,26.7,163.6,29.9,159.5,29.9z M193,33.8l-5.1-8.6c2.4-0.6,5-2.7,5-6.7c0-4.2-2.9-7.3-7.6-7.3
							h-10.6v22.6h4.8v-8h3.5l4.4,8H193z M184.5,21.5h-5.1v-6.1h5.1c1.9,0,3.4,1.2,3.4,3C187.9,20.4,186.4,21.5,184.5,21.5z
							 M219.6,33.8l-8.7-22.6h-6l-8.7,22.6h5.5L203,30h9.7l1.4,3.8H219.6z M211.4,25.7h-7l3.5-9.7L211.4,25.7z M232.1,33.8
							c7,0,12-4.5,12-11.3c0-6.8-4.9-11.3-12-11.3h-8.9v22.6H232.1z M232,29.6h-4.1V15.4h4.1c4.6,0,7,3.1,7,7.1
							C239.1,26.3,236.5,29.6,232,29.6z M258.2,34.2c6.8,0,11.8-4.9,11.8-11.7s-5-11.7-11.8-11.7c-6.8,0-11.8,4.9-11.8,11.7
							S251.3,34.2,258.2,34.2z M258.2,29.9c-4.2,0-6.9-3.2-6.9-7.4c0-4.2,2.7-7.4,6.9-7.4c4.2,0,6.8,3.2,6.8,7.4
							C265,26.7,262.4,29.9,258.2,29.9z"/>
					</g>
					<g>
						<path id="path-3_1_" fill="none" d="M94.7,34.2c4.9,0,7.8-2.7,9.4-5.6l-4.1-2c-0.9,1.8-3,3.3-5.3,3.3c-4.1,0-7.1-3.2-7.1-7.4
							s3-7.4,7.1-7.4c2.3,0,4.3,1.5,5.3,3.3l4.1-2c-1.6-2.9-4.5-5.5-9.4-5.5c-6.8,0-12.1,4.7-12.1,11.7
							C82.7,29.5,87.9,34.2,94.7,34.2z M117.8,34.2c6.8,0,11.8-4.9,11.8-11.7s-5-11.7-11.8-11.7c-6.8,0-11.8,4.9-11.8,11.7
							S110.9,34.2,117.8,34.2z M117.8,29.9c-4.2,0-6.9-3.2-6.9-7.4c0-4.2,2.7-7.4,6.9-7.4c4.2,0,6.8,3.2,6.8,7.4
							C124.6,26.7,121.9,29.9,117.8,29.9z M136.3,34.2c4.6,0,8-2.5,8-7.8V11.2h-4.8v15.1c0,2.2-1.4,3.6-3.5,3.6
							c-1.6,0-2.7-0.8-3.6-1.6l-2.1,3.7C131.9,33.6,134,34.2,136.3,34.2z M159.5,34.2c6.8,0,11.8-4.9,11.8-11.7s-5-11.7-11.8-11.7
							c-6.8,0-11.8,4.9-11.8,11.7S152.6,34.2,159.5,34.2z M159.5,29.9c-4.2,0-6.9-3.2-6.9-7.4c0-4.2,2.7-7.4,6.9-7.4
							c4.2,0,6.8,3.2,6.8,7.4C166.3,26.7,163.6,29.9,159.5,29.9z M193,33.8l-5.1-8.6c2.4-0.6,5-2.7,5-6.7c0-4.2-2.9-7.3-7.6-7.3
							h-10.6v22.6h4.8v-8h3.5l4.4,8H193z M184.5,21.5h-5.1v-6.1h5.1c1.9,0,3.4,1.2,3.4,3C187.9,20.4,186.4,21.5,184.5,21.5z
							 M219.6,33.8l-8.7-22.6h-6l-8.7,22.6h5.5L203,30h9.7l1.4,3.8H219.6z M211.4,25.7h-7l3.5-9.7L211.4,25.7z M232.1,33.8
							c7,0,12-4.5,12-11.3c0-6.8-4.9-11.3-12-11.3h-8.9v22.6H232.1z M232,29.6h-4.1V15.4h4.1c4.6,0,7,3.1,7,7.1
							C239.1,26.3,236.5,29.6,232,29.6z M258.2,34.2c6.8,0,11.8-4.9,11.8-11.7s-5-11.7-11.8-11.7c-6.8,0-11.8,4.9-11.8,11.7
							S251.3,34.2,258.2,34.2z M258.2,29.9c-4.2,0-6.9-3.2-6.9-7.4c0-4.2,2.7-7.4,6.9-7.4c4.2,0,6.8,3.2,6.8,7.4
							C265,26.7,262.4,29.9,258.2,29.9z"/>
					</g>
				</g>
				<g id="Path-37-_x2B_-Path-38-_x2B_-Path-48">
					<g id="Path-37">
						<g sketch:type="MSShapeGroup">
							
								<linearGradient id="path-5_2_" gradientUnits="userSpaceOnUse" x1="-42.8166" y1="197.5111" x2="-42.3801" y2="196.5469" gradientTransform="matrix(41.1563 0 0 -29.3963 1766.9183 5826.0801)">
								<stop  offset="0" style="stop-color:#2DBCCC"/>
								<stop  offset="0.5805" style="stop-color:#4CC7B0"/>
								<stop  offset="1" style="stop-color:#6CD392"/>
							</linearGradient>
							<path id="path-5" fill="url(#path-5_2_)" fill-opacity="0.6" d="M15.6,15.6L41.2,45H0L15.6,15.6z"/>
						</g>
						<g>
							<path id="path-5_1_" fill="none" d="M15.6,15.6L41.2,45H0L15.6,15.6z"/>
						</g>
					</g>
					<g id="Path-38">
						<g sketch:type="MSShapeGroup">
							
								<linearGradient id="path-7_2_" gradientUnits="userSpaceOnUse" x1="-42.0799" y1="196.2124" x2="-42.6325" y2="195.2665" gradientTransform="matrix(46.1412 0 0 -23.8382 2017.9292 4703.3335)">
								<stop  offset="0" style="stop-color:#2DBCCC"/>
								<stop  offset="0.5805" style="stop-color:#4CC7B0"/>
								<stop  offset="1" style="stop-color:#6CD392"/>
							</linearGradient>
							<path id="path-7" fill="url(#path-7_2_)" fill-opacity="0.6" d="M64.3,21.2L31.7,45h46.1L64.3,21.2z"/>
						</g>
						<g>
							<path id="path-7_1_" fill="none" d="M64.3,21.2L31.7,45h46.1L64.3,21.2z"/>
						</g>
					</g>
					<g id="Path-39">
						<g sketch:type="MSShapeGroup">
							
								<linearGradient id="path-9_2_" gradientUnits="userSpaceOnUse" x1="-42.6673" y1="199.4891" x2="-42.6673" y2="198.5119" gradientTransform="matrix(52.838 0 0 -45.0107 2292.1831 8980.1748)">
								<stop  offset="0" style="stop-color:#2DBCCC"/>
								<stop  offset="0.5805" style="stop-color:#4CC7B0"/>
								<stop  offset="1" style="stop-color:#6CD392"/>
							</linearGradient>
							<path id="path-9" fill="url(#path-9_2_)" fill-opacity="0.6" d="M64.2,45L37.6,0L11.3,45H64.2z"/>
						</g>
						<g>
							<path id="path-9_1_" fill="none" d="M64.2,45L37.6,0L11.3,45H64.2z"/>
						</g>
					</g>
				</g>
			</g>
		</g>
	</g>
</g>
</svg>
